<svg width="33" height="39" viewBox="0 0 33 39" fill="none" xmlns="http://www.w3.org/2000/svg">
<g id="Group 1633">
<path id="Vector" d="M16.3399 23.4116H16.429C18.3378 23.4625 19.8649 25.0151 19.8649 26.9239C19.8649 28.5528 18.7578 29.9144 17.2561 30.3217V31.7469C17.2561 32.256 16.8489 32.6632 16.3399 32.6632C15.8309 32.6632 15.4236 32.256 15.4236 31.7469V30.3217C14.6759 30.1206 14.0152 29.6789 13.5437 29.0647C13.0721 28.4506 12.816 27.6982 12.8149 26.9239C12.8149 26.4149 13.2221 26.0077 13.7311 26.0077C14.2402 26.0077 14.6474 26.4149 14.6474 26.9239C14.6474 27.8656 15.3982 28.6164 16.3272 28.6164C17.2561 28.6164 18.0197 27.8529 18.0197 26.9239C18.0197 25.9949 17.2561 25.2314 16.3272 25.2314H16.2381C15.3226 25.2066 14.4529 24.8258 13.8137 24.17C13.1745 23.5141 12.8162 22.6349 12.8149 21.7191C12.8149 20.0902 13.922 18.7286 15.4236 18.3214V16.8961C15.4236 16.3871 15.8309 15.9799 16.3399 15.9799C16.8489 15.9799 17.2561 16.3871 17.2561 16.8961V18.3214C18.7578 18.7286 19.8649 20.0902 19.8649 21.7191C19.8649 22.2281 19.4577 22.6354 18.9486 22.6354C18.4396 22.6354 18.0324 22.2281 18.0324 21.7191C18.0324 20.7902 17.2689 20.0266 16.3399 20.0266C15.4109 20.0266 14.6474 20.7902 14.6474 21.7191C14.6474 22.6481 15.4109 23.4116 16.3399 23.4116Z" fill="#225CCB"/>
<path id="Vector_2" d="M9.58489 5.28397L13.1303 9.43253L12.7472 9.86012C5.45033 11.4966 -6.10352e-05 18.0134 -6.10352e-05 25.8041C-6.10352e-05 32.653 5.5585 38.2116 12.4074 38.2116H20.2592C27.1081 38.2116 32.6667 32.6543 32.6667 25.8053C32.6794 18.0134 27.229 11.4966 19.9321 9.86012C19.9618 9.5912 19.9132 9.31944 19.7921 9.07749L22.8081 5.62502L23.0028 5.3247C23.2302 4.82881 23.2883 4.27197 23.1683 3.73981C23.0484 3.20766 22.7569 2.72965 22.3387 2.37931C21.9206 2.02897 21.3989 1.8257 20.854 1.80076C20.309 1.77582 19.771 1.93059 19.3226 2.24127L18.2498 0.968708C18.0091 0.699409 17.7145 0.48384 17.3849 0.33605C17.0554 0.18826 16.6984 0.111566 16.3373 0.110965C15.9761 0.110365 15.6189 0.185872 15.2889 0.332566C14.9589 0.47926 14.6634 0.693848 14.4219 0.962345L13.2982 2.21709C12.851 1.89995 12.3117 1.73901 11.7638 1.75916C11.2159 1.77931 10.6899 1.97944 10.2672 2.32858C9.84442 2.67772 9.54851 3.15643 9.42518 3.69065C9.30185 4.22488 9.35798 4.78486 9.58489 5.28397ZM14.4194 7.04648L12.2611 4.55225C12.7625 4.79386 13.3299 4.86246 13.8744 4.74734C14.419 4.63221 14.91 4.33984 15.2707 3.91597L16.2888 2.59504L17.4188 3.93378C17.7711 4.34352 18.2464 4.62844 18.7739 4.74608C19.3013 4.86373 19.8526 4.80779 20.3457 4.58661L18.1976 7.04648H14.4194ZM2.54507 25.8041C2.54507 18.184 8.71955 12.0095 16.3397 12.0095C23.9598 12.0095 30.1343 18.184 30.1215 25.8015V25.8041C30.1205 28.4194 29.0811 30.9274 27.2318 32.7767C25.3825 34.626 22.8745 35.6654 20.2592 35.6664H12.4074C9.79209 35.6654 7.28414 34.626 5.43481 32.7767C3.58547 30.9274 2.54608 28.4194 2.54507 25.8041Z" fill="#225CCB"/>
</g>
</svg>
