<svg width="34" height="34" viewBox="0 0 34 34" fill="none" xmlns="http://www.w3.org/2000/svg">
<g id="Group 1621">
<path id="Vector" d="M16.6665 18.9867C15.2189 18.9867 13.8305 19.5618 12.8069 20.5854C11.7833 21.609 11.2082 22.9974 11.2082 24.445C11.2082 25.8927 11.7833 27.281 12.8069 28.3047C13.8305 29.3283 15.2189 29.9034 16.6665 29.9034C18.1142 29.9034 19.5025 29.3283 20.5261 28.3047C21.5498 27.281 22.1249 25.8927 22.1249 24.445C22.1249 22.9974 21.5498 21.609 20.5261 20.5854C19.5025 19.5618 18.1142 18.9867 16.6665 18.9867ZM14.3272 24.445C14.3272 23.8246 14.5737 23.2296 15.0124 22.7909C15.4511 22.3522 16.0461 22.1057 16.6665 22.1057C17.2869 22.1057 17.8819 22.3522 18.3206 22.7909C18.7593 23.2296 19.0058 23.8246 19.0058 24.445C19.0058 25.0654 18.7593 25.6604 18.3206 26.0992C17.8819 26.5379 17.2869 26.7843 16.6665 26.7843C16.0461 26.7843 15.4511 26.5379 15.0124 26.0992C14.5737 25.6604 14.3272 25.0654 14.3272 24.445Z" fill="#225CCB"/>
<path id="Vector_2" d="M25.2846 7.47118L20.3268 0.520386L2.09755 15.0832L1.08698 15.0723V15.0879H0.291626V33.8022H33.0416V15.0879H31.5414L28.5564 6.35612L25.2846 7.47118ZM28.2461 15.0879H12.6072L24.2553 11.1173L26.6289 10.3579L28.2461 15.0879ZM22.2029 8.5223L10.179 12.6207L19.7015 5.01337L22.2029 8.5223ZM3.41067 27.8276V21.0593C4.06863 20.8262 4.66626 20.4491 5.15998 19.9557C5.65371 19.4622 6.03109 18.8648 6.2646 18.2069H27.0687C27.3021 18.865 27.6794 19.4627 28.1731 19.9564C28.6668 20.4501 29.2645 20.8275 29.9226 21.0609V27.8292C29.2645 28.0626 28.6668 28.4399 28.1731 28.9337C27.6794 29.4274 27.3021 30.0251 27.0687 30.6831H6.26772C6.03408 30.0245 5.65633 29.4264 5.16205 28.9324C4.66777 28.4383 4.06942 28.0609 3.41067 27.8276Z" fill="#225CCB"/>
</g>
</svg>
