<svg width="26" height="26" viewBox="0 0 26 26" fill="none" xmlns="http://www.w3.org/2000/svg">
<path id="Vector" d="M0.0860109 0.530334H25.2473V3.04646H22.7312V25.7923L20.6868 24.1568L18.3707 22.3049L16.3327 24.1165L15.4973 24.8588L14.6619 24.1165L12.6667 22.3414L10.6714 24.1153L9.83601 24.8575L9.00066 24.1153L6.96259 22.3037L4.64649 24.1568L2.60214 25.7923V3.04646H0.0860109V0.530334ZM5.11827 3.04646V20.5587L6.21908 19.6781L7.04814 19.0138L7.84072 19.7183L9.83601 21.4922L11.8313 19.7183L12.6667 18.9761L13.502 19.7183L15.4973 21.4922L17.4926 19.7183L18.2852 19.0138L19.1142 19.6768L20.215 20.5575V3.04646H5.11827ZM7.6344 6.82066H17.6989V9.33679H7.6344V6.82066ZM10.1505 11.8529H8.89246V14.369H16.4408V11.8529H15.1828H10.1505Z" fill="#225CCB"/>
</svg>
