<svg width="36" height="36" viewBox="0 0 36 36" fill="none" xmlns="http://www.w3.org/2000/svg">
<g id="IONIcon/W/wallet/default">
<path id="Vector" d="M6.94979 7.69314H28.981C29.2384 7.69301 29.4955 7.70934 29.7508 7.74202C29.6642 7.13462 29.4556 6.55105 29.1374 6.02646C28.8193 5.50188 28.3982 5.04717 27.8995 4.68973C27.4009 4.33229 26.835 4.07954 26.236 3.9467C25.637 3.81387 25.0174 3.80371 24.4144 3.91684L6.29574 7.01017H6.27508C5.13777 7.22765 4.12639 7.87113 3.44751 8.80916C4.47031 8.08166 5.69465 7.69151 6.94979 7.69314V7.69314Z" fill="#225CCB"/>
<path id="Vector_2" d="M28.9813 9.34857H6.95004C5.78182 9.34985 4.66182 9.81449 3.83576 10.6405C3.00971 11.4666 2.54507 12.5866 2.54379 13.7548V26.9736C2.54507 28.1418 3.00971 29.2618 3.83576 30.0878C4.66182 30.9139 5.78182 31.3785 6.95004 31.3798H28.9813C30.1495 31.3785 31.2695 30.9139 32.0956 30.0878C32.9216 29.2618 33.3863 28.1418 33.3875 26.9736V13.7548C33.3863 12.5866 32.9216 11.4666 32.0956 10.6405C31.2695 9.81449 30.1495 9.34985 28.9813 9.34857V9.34857ZM25.711 22.5673C25.2753 22.5673 24.8493 22.4381 24.487 22.196C24.1247 21.9539 23.8423 21.6099 23.6756 21.2073C23.5088 20.8047 23.4652 20.3617 23.5502 19.9344C23.6352 19.507 23.8451 19.1145 24.1532 18.8063C24.4613 18.4982 24.8538 18.2884 25.2812 18.2034C25.7086 18.1184 26.1516 18.162 26.5541 18.3288C26.9567 18.4955 27.3008 18.7779 27.5428 19.1402C27.7849 19.5025 27.9141 19.9285 27.9141 20.3642C27.9141 20.9485 27.682 21.5089 27.2689 21.922C26.8557 22.3352 26.2953 22.5673 25.711 22.5673Z" fill="#225CCB"/>
<path id="Vector_3" d="M2.57809 18.3985V11.5482C2.57809 10.0562 3.40427 7.55499 6.27177 7.01316C8.70553 6.5567 11.1152 6.5567 11.1152 6.5567C11.1152 6.5567 12.6987 7.65826 11.3906 7.65826C10.0825 7.65826 10.1169 9.34503 11.3906 9.34503C12.6643 9.34503 11.3906 10.963 11.3906 10.963L6.26144 16.7806L2.57809 18.3985Z" fill="#225CCB"/>
</g>
</svg>
